:SAMPLES-PER-SECOND 30
:FULLY-SPECIFIED
:DEGREES
300
root  34.85714169 36.52423348 -14.7837346 8.231184006 -4.546576023 3.61017704
lowerback  -7.650969982 -0.7404660583 -0.4772982895
upperback  -3.514950037 -0.5465430021 -3.311909914
thorax  0.6304550171 -0.1371479928 -3.192059994
lowerneck  -13.08920002 1.674679995 1.954949975
upperneck  15.17710018 1.339460015 5.120969772
head  6.776233196 1.339722157 1.47531569
lclavicle  0 -4.497500157e-015 -2.743230041e-014
lhumerus  -47.55501556 28.4959774 65.11400604
lradius  0.004719055258 -6.507048965e-006 31.09160042
lwrist  4.824992743e-007 -3.790274832e-007 -26.84120178
lhand  -4.409753888e-031 -36.79790115 -10.75039959
lfingers  90 7.125020027 -90
lthumb  94.78409238 -25.58847005 100.966642
rclavicle  0 -4.497500157e-015 -2.743230041e-014
rhumerus  -59.6637001 -15.55679893 -41.7364006
rradius  -5.16745672e-007 2.214343908e-008 100.6299973
rwrist  -7.499573258e-005 0.03438235447 177.1100159
rhand  -1.771930836e-031 4.859109879 -5.101230145
rfingers  -90 -7.125020027 -90
rthumb  -83.70605316 -10.65247886 -59.17703573
rfemur  -11.68415642 16.39529037 12.97531223
rtibia  -1.080836296 -0.7501505613 20.55345726
rfoot  0.2982978225 -21.41441154 -36.66420364
rtoes  3.892347283 19.6328159 -101.4477246
lfemur  -7.342850685 -17.24914551 -20.67736435
ltibia  2.834070206 -0.9236396551 14.21737671
lfoot  0.8030933738 -23.47718811 37.4360733
ltoes  -8.556156991 -18.14551777 -115.785282
301
root  34.85554072 36.52525774 -14.78034192 8.261487961 -4.498248577 3.621512651
lowerback  -7.627439976 -0.7385889888 -0.4671216607
upperback  -3.504369974 -0.5474119782 -3.299910069
thorax  0.6283419728 -0.1385069937 -3.185179949
lowerneck  -13.13549995 1.689370036 1.941140056
upperneck  15.22089958 1.353999972 5.16242981
head  6.798270226 1.351920009 1.493460059
lclavicle  0 -4.497500157e-015 -2.743230041e-014
lhumerus  -47.52460098 28.45140076 65.19000244
lradius  0.004719055258 -6.507048965e-006 31.13170052
lwrist  4.824992743e-007 -3.790274832e-007 -26.71269989
lhand  -4.408758328e-031 -36.7806015 -10.70950031
lfingers  90 7.125020027 -90
lthumb  94.76737377 -25.54891691 100.9444684
rclavicle  0 -4.497500157e-015 -2.743230041e-014
rhumerus  -59.60110092 -15.4139986 -42.76940155
rradius  -5.16745672e-007 2.214343908e-008 100.0329971
rwrist  -7.499573258e-005 0.03438235447 177.2890015
rhand  -1.770394641e-031 4.234189987 -5.052420139
rfingers  -90 -7.125020027 -90
rthumb  -83.84801239 -10.66646252 -59.78585138
rfemur  -11.7146101 16.38846779 12.9608736
rtibia  -1.086374164 -0.7418199182 20.57029533
rfoot  0.283288449 -21.38399124 -36.70349121
rtoes  3.899464943 19.63145705 -101.4689094
lfemur  -7.315018177 -17.21110535 -20.70050621
ltibia  2.891166925 -0.8809803128 14.12103081
lfoot  0.8086375594 -23.51366234 37.41117096
ltoes  -8.552300206 -18.14728783 -115.7728985
302
root  34.85405088 36.52613783 -14.77882956 8.286446571 -4.465256691 3.620996952
lowerback  -7.585670471 -0.6731120348 -0.3346397579
upperback  -3.520359993 -0.4666349888 -3.372240067
thorax  0.5906670094 -0.09895160049 -3.328289986
lowerneck  -13.1420002 1.644739985 1.929239988
upperneck  15.25290012 1.283740044 5.260220051
head  6.813497066 1.329322815 1.519042611
lclavicle  0 -4.497500157e-015 -2.743230041e-014
lhumerus  -47.43519974 28.25690079 65.2621994
lradius  0.004719055258 -6.507048965e-006 31.12296486
lwrist  4.824992743e-007 -3.790274832e-007 -26.60740089
lhand  -4.408758328e-031 -36.7806015 -10.71360016
lfingers  90 7.125020027 -90
lthumb  94.76822899 -25.55304549 100.9447832
rclavicle  0 -4.497500157e-015 -2.743230041e-014
rhumerus  -59.79919815 -15.53130054 -43.71859741
rradius  -5.16745672e-007 2.214343908e-008 99.46279907
rwrist  -7.499573258e-005 0.03438235447 177.4759979
rhand  -1.770540587e-031 4.297510147 -5.141640186
rfingers  -90 -7.125020027 -90
rthumb  -83.876969 -10.59218524 -59.7321692
rfemur  -11.74763012 16.34948158 12.97031975
rtibia  -1.095875382 -0.7323458195 20.59794235
rfoot  0.2711724341 -21.37214088 -36.69401932
rtoes  3.909500135 19.62953681 -101.4987802
lfemur  -7.317586422 -17.2234993 -20.6954155
ltibia  2.911529064 -0.8532654047 14.08268833
lfoot  0.8148605824 -23.5447731 37.42080307
ltoes  -8.571482709 -18.13847423 -115.8345018
303
root  34.8519513 36.52604471 -14.77657528 8.291496277 -4.40688467 3.62761116
lowerback  -7.631400108 -0.6878080368 -0.3905290663
upperback  -3.495280027 -0.484908998 -3.320009947
thorax  0.6420699954 -0.1082359999 -3.244410038
lowerneck  -13.21609974 1.652699947 1.872419953
upperneck  15.29749966 1.296450019 5.284699917
head  6.830503464 1.337113857 1.545995712
lclavicle  0 -4.497500157e-015 -2.743230041e-014
lhumerus  -47.4034996 28.33950043 65.33640289
lradius  0.004719055258 -6.507048965e-006 31.13579941
lwrist  4.824992743e-007 -3.790274832e-007 -26.49880028
lhand  -4.408073895e-031 -36.76869965 -10.77880001
lfingers  90 7.125020027 -90
lthumb  94.77638389 -25.61741962 100.9380582
rclavicle  0 -4.497500157e-015 -2.743230041e-014
rhumerus  -59.69630051 -15.56930065 -44.70569611
rradius  -5.16745672e-007 2.214343908e-008 98.87609863
rwrist  -7.499573258e-005 0.03438235447 178.3350067
rhand  -1.771450211e-031 4.672679901 -5.356979847
rfingers  -90 -7.125020027 -90
rthumb  -83.88870216 -10.42393946 -59.3843171
rfemur  -11.74930191 16.33868408 12.97764492
rtibia  -1.10343039 -0.7254190445 20.61693954
rfoot  0.2561402619 -21.36488342 -36.72586441
rtoes  3.918253235 19.62785768 -101.5248371
lfemur  -7.271363258 -17.30302811 -20.71936417
ltibia  2.956016302 -0.8607471585 14.0083847
lfoot  0.8101655841 -23.48321152 37.443367
ltoes  -8.581588086 -18.1338213 -115.8669662
